<?xml version="1.0" encoding="utf-8"?>
<!-- Generator: Adobe Illustrator 19.0.0, SVG Export Plug-In . SVG Version: 6.00 Build 0)  -->
<svg version="1.1" id="Layer_1" xmlns="http://www.w3.org/2000/svg" xmlns:xlink="http://www.w3.org/1999/xlink" x="0px" y="0px"
	 viewBox="0 0 422.8 58" style="enable-background:new 0 0 422.8 58;" xml:space="preserve">
<style type="text/css">
	.st0{fill:#FFFFFF;}
</style>
<g id="XMLID_3_">
	<path id="XMLID_4_" class="st0" d="M11.9,58H0V0.9h32.7v9.9H11.9v14.7h19.4v9.9H11.9V58z"/>
	<path id="XMLID_6_" class="st0" d="M95.7,29.4c0,9.5-2.3,16.7-7,21.8s-11.4,7.6-20.2,7.6s-15.5-2.5-20.2-7.6s-7-12.4-7-21.9
		c0-9.5,2.3-16.8,7.1-21.8C53.1,2.5,59.9,0,68.6,0c8.8,0,15.5,2.5,20.1,7.6C93.4,12.6,95.7,19.9,95.7,29.4z M54.1,29.4
		c0,6.4,1.2,11.2,3.6,14.4c2.4,3.2,6,4.8,10.9,4.8c9.7,0,14.5-6.4,14.5-19.3c0-12.9-4.8-19.3-14.4-19.3c-4.8,0-8.5,1.6-10.9,4.9
		C55.3,18.2,54.1,23,54.1,29.4z"/>
	<path id="XMLID_9_" class="st0" d="M159.4,29.4c0,9.5-2.3,16.7-7,21.8s-11.4,7.6-20.2,7.6s-15.5-2.5-20.2-7.6s-7-12.4-7-21.9
		c0-9.5,2.3-16.8,7.1-21.8c4.7-5,11.4-7.5,20.2-7.5c8.8,0,15.5,2.5,20.1,7.6C157.1,12.6,159.4,19.9,159.4,29.4z M117.7,29.4
		c0,6.4,1.2,11.2,3.6,14.4c2.4,3.2,6,4.8,10.9,4.8c9.7,0,14.5-6.4,14.5-19.3c0-12.9-4.8-19.3-14.4-19.3c-4.8,0-8.5,1.6-10.9,4.9
		C119,18.2,117.7,23,117.7,29.4z"/>
	<path id="XMLID_12_" class="st0" d="M218.6,28.9c0,9.4-2.7,16.6-8,21.6S197.5,58,187.4,58h-16.2V0.9h17.9c9.3,0,16.6,2.5,21.7,7.4
		S218.6,20.1,218.6,28.9z M206.1,29.2c0-12.3-5.4-18.4-16.3-18.4h-6.4V48h5.2C200.2,48,206.1,41.7,206.1,29.2z"/>
	<path id="XMLID_15_" class="st0" d="M254.7,10.2c-4.6,0-8.1,1.7-10.6,5.1c-2.5,3.4-3.8,8.2-3.8,14.3c0,12.7,4.8,19.1,14.3,19.1
		c4,0,8.9-1,14.6-3v10.2c-4.7,2-9.9,2.9-15.7,2.9c-8.3,0-14.7-2.5-19.1-7.6c-4.4-5-6.6-12.3-6.6-21.7c0-5.9,1.1-11.1,3.2-15.6
		c2.2-4.5,5.3-7.9,9.3-10.3c4-2.4,8.8-3.6,14.2-3.6c5.5,0,11.1,1.3,16.7,4l-3.9,9.8c-2.1-1-4.3-1.9-6.4-2.7
		C258.9,10.5,256.8,10.2,254.7,10.2z"/>
	<path id="XMLID_17_" class="st0" d="M316.4,58l-4.1-13.6h-20.8L287.3,58h-13l20.2-57.3h14.8L329.5,58H316.4z M309.4,34.3
		c-3.8-12.3-6-19.3-6.5-20.9c-0.5-1.6-0.8-2.9-1-3.8c-0.9,3.3-3.3,11.6-7.4,24.7H309.4z"/>
	<path id="XMLID_20_" class="st0" d="M336.6,58V0.9h12.1V48h23.2v10H336.6z"/>
	<path id="XMLID_22_" class="st0" d="M406.1,10.2c-4.6,0-8.1,1.7-10.6,5.1c-2.5,3.4-3.8,8.2-3.8,14.3c0,12.7,4.8,19.1,14.3,19.1
		c4,0,8.9-1,14.6-3v10.2c-4.7,2-9.9,2.9-15.7,2.9c-8.3,0-14.7-2.5-19.1-7.6c-4.4-5-6.6-12.3-6.6-21.7c0-5.9,1.1-11.1,3.2-15.6
		c2.2-4.5,5.3-7.9,9.3-10.3c4-2.4,8.8-3.6,14.2-3.6c5.5,0,11.1,1.3,16.7,4l-3.9,9.8c-2.1-1-4.3-1.9-6.4-2.7
		C410.3,10.5,408.2,10.2,406.1,10.2z"/>
</g>
</svg>
