<svg id="Layer_1" data-name="Layer 1" xmlns="http://www.w3.org/2000/svg" width="68" height="40" viewBox="0 0 68 40"><g id="FUTURE"><polygon points="1.759 10.465 3.636 10.465 3.636 5.65 7.036 5.65 7.036 3.865 3.636 3.865 3.636 1.785 7.161 1.785 7.161 0 1.759 0 1.759 10.465" style="fill:#6acff6"/><path d="M18.61972,6.74083a2.76775,2.76775,0,0,1-.342,1.57866,1.66544,1.66544,0,0,1-1.44207.69674,1.65837,1.65837,0,0,1-1.43476-.6946,2.81557,2.81557,0,0,1-.34355-1.5808V1.18994H13.3598V7.11076a3.41221,3.41221,0,0,0,3.47583,3.51629,3.43682,3.43682,0,0,0,2.554-1.07108,3.39857,3.39857,0,0,0,.92756-2.44521V1.18994H18.61972Z" style="fill:#6acff6"/><polygon points="25.513 2.807 27.565 2.807 27.565 10.465 29.263 10.465 29.263 2.807 31.309 2.807 31.309 1.19 25.513 1.19 25.513 2.807" style="fill:#6acff6"/><path d="M41.76468,6.74083a2.76776,2.76776,0,0,1-.342,1.57866,1.83492,1.83492,0,0,1-2.87683.00214,2.81548,2.81548,0,0,1-.34356-1.5808V1.18994H36.50476V7.11076a3.41221,3.41221,0,0,0,3.47583,3.51629A3.43684,3.43684,0,0,0,42.53464,9.556a3.39857,3.39857,0,0,0,.92756-2.44521V1.18994H41.76468Z" style="fill:#6acff6"/><path d="M54.36357,5.723a2.71821,2.71821,0,0,0,.58152-1.73926A2.62116,2.62116,0,0,0,54.0159,1.8961a4.11954,4.11954,0,0,0-2.668-.70616H49.59453V10.4652h1.69752V6.84667l2.525,3.61853H55.9L53.08582,6.59132A2.57089,2.57089,0,0,0,54.36357,5.723Zm-2.81916-.43492h-.25236V2.80653h.30438c.72371,0,1.68582.12382,1.68582,1.19452C53.28225,5.15463,52.29043,5.28805,51.54441,5.28805Z" style="fill:#6acff6"/><polygon points="66.341 2.807 66.341 1.19 61.066 1.19 61.066 10.465 66.341 10.465 66.341 8.849 62.763 8.849 62.763 6.217 66.237 6.217 66.237 4.6 62.763 4.6 62.763 2.807 66.341 2.807" style="fill:#6acff6"/></g><polygon id="W" points="13.099 13.783 10.43 20.234 7.789 12.963 5.032 20.23 2.521 13.783 0.485 13.783 5.045 25.205 7.75 18.053 10.342 25.196 15.138 13.783 13.099 13.783" style="fill:#fff"/><g id="NDER"><polygon points="35.049 20.954 28.541 14.145 28.541 24.289 30.238 24.289 30.238 18.302 36.747 25.094 36.747 15.014 35.049 15.014 35.049 20.954" style="fill:#fff"/><path d="M46.81065,16.21014a4.16775,4.16775,0,0,0-1.582-.921,7.01516,7.01516,0,0,0-2.18365-.27526H40.99687v9.27527h2.025a7.08826,7.08826,0,0,0,2.15068-.2566,4.51719,4.51719,0,0,0,3.07653-4.381A4.45741,4.45741,0,0,0,46.81065,16.21014Zm-3.68473,6.46244h-.43154V16.6305h.43154a3.57344,3.57344,0,0,1,2.48743.76808,2.90819,2.90819,0,0,1,.92666,2.253,2.85918,2.85918,0,0,1-.93646,2.234,2.898,2.898,0,0,1-1.02206.60448A4.91829,4.91829,0,0,1,43.12592,22.67258Z" style="fill:#fff"/><polygon points="52.054 24.289 57.33 24.289 57.33 22.673 53.752 22.673 53.752 20.041 57.226 20.041 57.226 18.424 53.752 18.424 53.752 16.631 57.33 16.631 57.33 15.014 52.054 15.014 52.054 24.289" style="fill:#fff"/><path d="M64.70109,20.41529a2.57089,2.57089,0,0,0,1.27775-.86835,2.71814,2.71814,0,0,0,.58153-1.73926,2.62116,2.62116,0,0,0-.92919-2.08761,4.11955,4.11955,0,0,0-2.668-.70616H61.20981v9.27527h1.69752V20.67064l2.525,3.61854h2.08295Zm.19644-2.59027c0,1.15359-.99183,1.287-1.73785,1.287h-.25235V16.6305h.30437C63.93542,16.6305,64.89753,16.75433,64.89753,17.825Z" style="fill:#fff"/></g><circle cx="21.17568" cy="19.65154" r="4.81225" style="fill:#fcaf26"/><path d="M29.658,27.24229a11.36951,11.36951,0,0,1-16.96335-.00013,17.68484,17.68484,0,0,1-6.28706,4.82572A17.573,17.573,0,0,1,.48475,33.58743V40h67.0305V36.648s-14.83274-.57221-26.1652-3.99214A46.289,46.289,0,0,1,29.658,27.24229Z" style="fill:#6acff6"/><rect width="68" height="40" style="fill:none"/></svg>