<?xml version="1.0" encoding="utf-8"?>
<!-- Generator: Adobe Illustrator 19.0.0, SVG Export Plug-In . SVG Version: 6.00 Build 0)  -->
<svg version="1.1" id="Layer_1" xmlns="http://www.w3.org/2000/svg" xmlns:xlink="http://www.w3.org/1999/xlink" x="0px" y="0px"
	 viewBox="0 0 1070 211" style="enable-background:new 0 0 1070 211;" xml:space="preserve">
<style type="text/css">
	.st0{fill:#3A8AC9;}
	.st1{fill:#398ACA;stroke:#398ACA;stroke-width:4;stroke-miterlimit:10;}
	.st2{fill:#59595A;stroke:#000000;stroke-width:10;stroke-miterlimit:10;}
	.st3{fill:#59595A;stroke:#000000;stroke-width:9;stroke-miterlimit:10;}
	.st4{fill:#59595A;stroke:#000000;stroke-width:3;stroke-miterlimit:10;}
	.st5{fill:#59595A;}
	.st6{fill:none;}
	.st7{fill:#FFFFFF;}
	.st8{font-family:'QuicksandBold-Regular';}
	.st9{font-size:53.9341px;}
	.st10{fill:none;stroke:#3A8AC9;stroke-width:14;stroke-miterlimit:10;}
</style>
<g id="XMLID_181_">
	<path id="XMLID_161_" class="st0" d="M438.7,82.2c-0.3-11.5-9.4-21-21-21c-11.5,0-20.8,9.5-20.8,21V119v0.4c0,0.1-0.1,0.3-0.1,0.3
		v0.3c-0.3,0.8-1,1.4-1.7,1.8c-0.6,0.3-1.1,0.4-1.7,0.4H393h-0.3c-0.1,0-0.3-0.1-0.3-0.1c-0.3,0-0.6-0.3-0.8-0.4
		c-0.1,0-0.3-0.1-0.4-0.3l-0.4-0.4c-0.1-0.1-0.1-0.3-0.3-0.3c0-0.1,0-0.1-0.1-0.3c0,0,0-0.1-0.1-0.3c0-0.1,0-0.3-0.1-0.4v-0.4V119
		V82.2c0-11.5-9.2-21-20.8-21s-20.8,9.5-20.8,21V119c0,1.1-0.6,2.1-1.5,2.6c-0.1,0.1-0.6,0.4-0.8,0.4c-0.1,0.1-0.3,0.1-0.6,0.1h-0.4
		h-0.4c-1.2-0.1-2.3-1.2-2.8-2.5V119V82.2v-1.1V57.9c0-1.8,1.5-3.2,3.2-3.2c1.9,0,3.3,1.4,3.3,3.2v6.5c5-5.9,12.4-9.7,20.8-9.7
		c10.5,0,19.5,5.8,24.1,14.4c4.8-8.6,13.9-14.4,24.3-14.4c15.2,0,27.5,12.3,27.5,27.5V119c0,1.7-1.4,3.2-3.3,3.2
		c-1.8,0-3.2-1.5-3.2-3.2V82.2z"/>
	<path id="XMLID_163_" class="st1" d="M441.9,123.2c-2.3,0-4.2-1.9-4.2-4.2V82.2c-0.3-11.2-9-20-20-20c-10.9,0-19.8,9-19.8,20v37.3
		c0,0.2-0.1,0.4-0.1,0.6v0.1l-0.1,0.2c-0.4,1.2-1.4,1.9-2.1,2.3c-0.8,0.4-1.5,0.6-2.2,0.6h-0.7c-0.3,0-0.5-0.1-0.7-0.2
		c-0.3-0.1-0.5-0.2-0.7-0.4c0,0-0.1,0-0.1-0.1c-0.4-0.1-0.6-0.4-0.8-0.5l-0.4-0.4h-0.6V121l-0.1-0.1l0-0.1l-0.2-0.2v-0.3l-0.1-0.1
		V82.2c0-11-8.9-20-19.8-20s-19.8,9-19.8,20V119c0,1.4-0.7,2.7-1.9,3.4c-0.2,0.2-0.6,0.4-1,0.5c-0.3,0.2-0.7,0.2-0.9,0.2l-0.9,0
		c-1.6-0.2-3-1.5-3.6-3.2l-0.1-0.2v-62c0-2.3,1.9-4.2,4.2-4.2c2.5,0,4.3,1.8,4.3,4.2v3.9c5.2-5.2,12.3-8.1,19.8-8.1
		c9.8,0,18.9,5.1,24.2,13.4c5.3-8.3,14.5-13.4,24.3-13.4c15.7,0,28.5,12.8,28.5,28.5V119C446.2,121.3,444.3,123.2,441.9,123.2z
		 M344.8,121.2h0.8h0l0.1-0.1h0.3c0.1,0,0.2-0.1,0.2-0.1l0.2-0.2c0.6-0.4,1-1,1-1.8V82.2c0-12.1,9.8-22,21.8-22s21.8,9.9,21.8,22
		v37.2c0.1,0.1,0.1,0.3,0.1,0.4c0,0,0,0.1,0.1,0.1c0,0.1,0.1,0.1,0.1,0.2c0,0.1,0.1,0.1,0.1,0.2l0.4,0.4c0,0,0,0,0,0l0.1,0.1
		c0.1,0.1,0.3,0.1,0.4,0.2c0,0,0.1,0.1,0.1,0.1h0.3l0.1,0.1h0.4c0.4,0,0.8-0.1,1.2-0.3c0.6-0.3,0.9-0.7,1.1-1.1v-0.5l0.1-0.1v-37
		c0-12.1,9.8-22,21.8-22c12,0,21.7,9.6,22,21.9V119c0,1,0.9,2.2,2.2,2.2c1.4,0,2.3-1.1,2.3-2.2V82.2c0-14.6-11.9-26.5-26.5-26.5
		c-9.6,0-18.6,5.3-23.4,13.8l-0.9,1.6l-0.9-1.6c-4.7-8.5-13.6-13.8-23.3-13.8c-7.8,0-15.1,3.4-20.1,9.3l-1.8,2.1v-9.2
		c0-1.3-1-2.2-2.3-2.2c-1,0-2.2,0.9-2.2,2.2v61.6C343.3,120.4,344.1,121.1,344.8,121.2z"/>
</g>
<g id="XMLID_160_">
	<path id="XMLID_152_" class="st0" d="M468.4,88.5c0-18.8,14.6-33.9,32.8-33.9c17.4,0,31.2,13.8,32.6,31.5v0.1v0.4
		c0,1.8-1.5,3-3.3,3H475c0.7,14.8,12.3,25.9,26.2,25.9c9,0,17.2-4.7,21.8-12.3c1-1.7,3-1.9,4.4-1.1c1.5,1.1,2.1,3,1.1,4.7
		c-5.8,9.2-15.9,15.3-27.3,15.3C483,122.2,468.4,107,468.4,88.5z M475.4,83.2h51.2c-2.2-12.7-13-21.9-25.4-21.9
		C488.5,61.2,477.9,70.3,475.4,83.2z"/>
	<path id="XMLID_155_" class="st1" d="M501.2,123.2c-18.7,0-33.8-15.6-33.8-34.7c0-19.3,15.2-34.9,33.8-34.9
		c17.7,0,32.1,13.9,33.6,32.4l0,0.6c0,2.3-1.9,4-4.3,4h-54.4c1.1,13.5,12,23.9,25.2,23.9c8.6,0,16.6-4.5,20.9-11.8
		c0.6-0.9,1.5-1.6,2.5-1.9c1.1-0.3,2.3-0.1,3.3,0.5c2.1,1.5,2.6,4,1.5,6.1C523.2,117.3,512.7,123.2,501.2,123.2z M501.2,55.6
		c-17.6,0-31.8,14.8-31.8,32.9c0,18,14.3,32.7,31.8,32.7c10.7,0,20.6-5.6,26.5-14.8c0.7-1.1,0.3-2.5-0.8-3.4
		c-0.4-0.3-1.1-0.3-1.7-0.2c-0.4,0.1-0.9,0.4-1.3,1c-4.7,7.9-13.4,12.8-22.7,12.8c-14.6,0-26.5-11.8-27.2-26.9l0-1h56.5
		c1.1,0,2.3-0.7,2.3-2v-0.6C531.4,68.7,517.9,55.6,501.2,55.6z M527.8,84.2h-53.6l0.2-1.2c2.6-13.4,13.6-22.7,26.8-22.7
		c13,0,24.1,9.6,26.4,22.8L527.8,84.2z M476.7,82.2h48.7c-2.6-11.6-12.5-19.9-24.2-19.9C489.4,62.2,479.5,70.4,476.7,82.2z"/>
</g>
<g id="XMLID_151_">
	<path id="XMLID_146_" class="st0" d="M605.6,82.2c0-11.5-9.2-20.8-20.8-20.8c-11.5,0-20.7,9.4-21,20.8v36.7v0.6
		c-0.1,0.6-0.3,1.1-0.7,1.5c-0.6,0.8-1.5,1.2-2.5,1.2h-0.8c-1-0.3-1.8-1-2.2-1.8c-0.1-0.1-0.1-0.3-0.1-0.4c0-0.1-0.1-0.3-0.1-0.3
		v-0.8V82.2v-1.1v-23c0-1.8,1.4-3.3,3.3-3.3c1.8,0,3.2,1.5,3.2,3.3v6.5c5-5.9,12.6-9.8,21-9.8c15.2,0,27.5,12.4,27.5,27.5v36.7
		c0,1.9-1.5,3.3-3.3,3.3c-1.8,0-3.3-1.4-3.3-3.3V82.2z"/>
	<path id="XMLID_148_" class="st1" d="M608.9,123.2c-2.4,0-4.3-1.9-4.3-4.3V82.2c0-10.9-8.9-19.8-19.8-19.8
		c-10.8,0-19.7,8.9-20,19.9v37.4l0,0.1c-0.1,0.6-0.3,1.3-0.9,1.9c-0.7,1-1.9,1.6-3.3,1.6l-1.1,0c-1.2-0.3-2.2-1.2-2.8-2.2
		c-0.2-0.2-0.3-0.5-0.3-0.7l-0.2-0.2V58.1c0-2.4,1.9-4.3,4.3-4.3c2.3,0,4.2,1.9,4.2,4.3V62c5.3-5.3,12.4-8.2,20-8.2
		c15.7,0,28.5,12.8,28.5,28.5v36.7C613.2,121.3,611.3,123.2,608.9,123.2z M584.7,60.4c12,0,21.8,9.8,21.8,21.8v36.7
		c0,1.3,1,2.3,2.3,2.3s2.3-1,2.3-2.3V82.2c0-14.6-11.9-26.5-26.5-26.5c-7.8,0-15.2,3.4-20.2,9.4l-1.8,2.1v-9.2c0-1.3-1-2.3-2.2-2.3
		c-1.3,0-2.3,1-2.3,2.3v61.4c0.1,0.1,0.1,0.3,0.1,0.5l0,0.1c0.3,0.6,0.8,1,1.5,1.2h0.7c0.7,0,1.3-0.3,1.7-0.8l0.1-0.2
		c0.2-0.2,0.3-0.5,0.4-0.9V82.2C563,70.1,572.9,60.4,584.7,60.4z"/>
</g>
<g id="XMLID_145_">
	<path id="XMLID_140_" class="st0" d="M640.5,57.8c0-1.9,1.5-3.3,3.3-3.3s3.3,1.4,3.3,3.3v36.8c0,11.6,9.2,20.8,20.7,21
		c11.6-0.1,21-9.4,21-21V57.8c0-1.9,1.7-3.3,3.3-3.3c1.9,0,3.4,1.4,3.4,3.3v36.8c0,15.2-12.3,27.6-27.7,27.6
		c-15.2,0-27.3-12.4-27.3-27.6V57.8z"/>
	<path id="XMLID_142_" class="st1" d="M667.8,123.2c-15.6,0-28.3-12.8-28.3-28.6V57.8c0-2.4,1.9-4.3,4.3-4.3s4.3,1.9,4.3,4.3v36.8
		c0,11.1,8.7,19.8,19.7,20c11-0.1,20-9.1,20-20V57.8c0-2.6,2.2-4.3,4.3-4.3c2.5,0,4.4,1.9,4.4,4.3v36.8
		C696.5,110.4,683.6,123.2,667.8,123.2z M643.8,55.5c-1.3,0-2.3,1-2.3,2.3v36.8c0,14.7,11.8,26.6,26.3,26.6
		c14.7,0,26.7-11.9,26.7-26.6V57.8c0-1.3-1-2.3-2.4-2.3c-1.1,0-2.3,0.9-2.3,2.3v36.8c0,12-9.9,21.8-22,22
		c-12.2-0.1-21.7-9.8-21.7-22V57.8C646.1,56.5,645.1,55.5,643.8,55.5z"/>
</g>
<path id="XMLID_249_" class="st2" d="M756.4,54.6c8,0,15.6,2.6,21.5,7.3c0.7,0.7,0.7,1.8,0.1,2.6c-0.6,0.7-1.5,0.7-2.3,0.1
	c-5.4-4.1-12.1-6.6-19.3-6.6c-17.5,0-31.3,13.7-31.3,30.4c0,16.7,13.8,30.4,31.3,30.4c7.2,0,13.9-2.6,19.3-6.8
	c0.7-0.4,1.8-0.3,2.3,0.4c0.6,0.8,0.6,1.8-0.1,2.5c-5.9,4.6-13.5,7.3-21.5,7.3c-19.2-0.1-34.8-15.3-34.8-33.8
	C721.6,69.8,737.2,54.6,756.4,54.6z"/>
<path id="XMLID_251_" class="st3" d="M861.7,56.4v64c0,1.1-0.7,1.8-1.7,1.8c-1.1,0-1.8-0.7-1.8-1.8v-16.8c-5.2,11-16,18.6-28.4,18.6
	c-17.7,0-31.9-15.3-31.9-33.8c0-18.5,14.2-33.8,31.9-33.8c12.4,0,23.2,7.7,28.4,18.6V56.4c0-0.8,0.7-1.8,1.8-1.8
	C861,54.6,861.7,55.6,861.7,56.4z M858.2,88.4c0-16.7-12.8-30.2-28.4-30.2c-15.6,0-28.4,13.5-28.4,30.2c0,16.8,12.8,30.4,28.4,30.4
	C845.4,118.8,858.2,105.2,858.2,88.4z"/>
<path id="XMLID_254_" class="st2" d="M893.5,27.4c0-1,0.7-1.8,1.8-1.8c1,0,1.7,0.8,1.7,1.8v93c0,1-0.7,1.8-1.7,1.8
	c-1.1,0-1.8-0.8-1.8-1.8V27.4z"/>
<path id="XMLID_318_" class="st2" d="M954.4,54.6c8,0,15.6,2.6,21.5,7.3c0.7,0.7,0.7,1.8,0.1,2.6c-0.6,0.7-1.5,0.7-2.3,0.1
	c-5.4-4.1-12.1-6.6-19.3-6.6c-17.5,0-31.3,13.7-31.3,30.4c0,16.7,13.8,30.4,31.3,30.4c7.2,0,13.9-2.6,19.3-6.8
	c0.7-0.4,1.8-0.3,2.3,0.4c0.6,0.8,0.6,1.8-0.1,2.5c-5.9,4.6-13.5,7.3-21.5,7.3c-19.2-0.1-34.8-15.3-34.8-33.8
	C919.6,69.8,935.2,54.6,954.4,54.6z"/>
<g id="XMLID_270_">
	<path id="XMLID_273_" class="st4" d="M342.9,144.5c0-0.5,0.4-0.9,0.9-0.9h0.1h14c7.4,0,13.4,6,13.4,13.4s-6.1,13.3-13.4,13.3h-13.3
		v20.5c0,0.5-0.3,0.9-0.8,0.9c-0.5,0-0.9-0.4-0.9-0.9V144.5z M357.9,168.5c6.4,0,11.6-5.1,11.6-11.6c0-6.5-5.2-11.7-11.6-11.7h-13.3
		v23.3H357.9z"/>
	<path id="XMLID_276_" class="st4" d="M395.5,158c8.8,0,16,7.6,16,16.9c0,9.2-7.2,16.9-16,16.9s-15.9-7.6-15.9-16.9
		C379.6,165.6,386.7,158,395.5,158z M395.5,190c7.8,0,14.2-6.8,14.2-15.1c0-8.4-6.5-15.1-14.2-15.1s-14.2,6.7-14.2,15.1
		C381.3,183.2,387.7,190,395.5,190z"/>
	<path id="XMLID_279_" class="st4" d="M452.7,191.5c-0.1-0.1-0.1-0.1-0.1-0.2c0,0-0.1,0-0.1-0.1v-0.1l-9.1-21.6l-9.1,21.6
		c-0.1,0.3-0.3,0.5-0.6,0.6h-0.3h-0.1c-0.1,0-0.2-0.1-0.3-0.1c-0.2-0.1-0.3-0.3-0.3-0.6l-13.3-31.7c-0.2-0.4,0-1,0.5-1.1
		c0.4-0.2,1,0,1.2,0.4l12.6,30l9-21.5c0.1-0.3,0.5-0.6,1-0.5c0.3,0,0.6,0.2,0.8,0.5l9,21.5l12.7-30c0.1-0.4,0.6-0.6,1.1-0.4
		c0.4,0.1,0.7,0.7,0.5,1.1l-13.4,31.9c0,0.1-0.1,0.3-0.3,0.3c-0.2,0.1-0.3,0.2-0.5,0.2c-0.2,0-0.3,0-0.4-0.1
		C452.8,191.7,452.7,191.6,452.7,191.5z"/>
	<path id="XMLID_281_" class="st4" d="M474.1,174.9c0.1-9.4,7.4-16.9,16.4-16.9c8.6,0,15.5,6.8,16.2,15.5v0.1v0.1v0.1
		c-0.1,0.4-0.4,0.8-0.8,0.8h-30v0.2c0,8.3,6.5,15.1,14.7,15.1c5.1,0,9.6-2.8,12.1-6.9c0.3-0.4,0.8-0.4,1.2-0.2
		c0.3,0.2,0.5,0.8,0.2,1.2c-2.9,4.5-7.9,7.6-13.6,7.6C481.5,191.6,474.3,184.1,474.1,174.9z M475.9,173h29
		c-0.9-7.5-7.1-13.2-14.4-13.2C483,159.8,476.8,165.5,475.9,173z"/>
	<path id="XMLID_284_" class="st4" d="M517.1,175.1c-0.1-0.1-0.1-0.2,0-0.4v-15.8c0-0.5,0.4-0.9,0.8-0.9c0.6,0,0.8,0.4,0.8,0.9v11.4
		c0.5-1.2,1.2-2.6,2.1-4c2.6-3.9,6.9-8.3,13.4-8.3c0.6,0,0.9,0.4,0.9,0.9c0,0.5-0.3,0.9-0.9,0.9c-4.3,0-7.5,2.1-9.8,4.6
		c-2.4,2.8-4.1,6.2-5,8.3c-0.5,1.5-0.8,2.3-0.8,2.3v15.8c0,0.6-0.3,0.9-0.8,0.9c-0.4,0-0.8-0.3-0.8-0.9V175.1z"/>
	<path id="XMLID_286_" class="st4" d="M541.4,174.9c0.1-9.4,7.4-16.9,16.4-16.9c8.6,0,15.5,6.8,16.2,15.5v0.1v0.1v0.1
		c-0.1,0.4-0.4,0.8-0.8,0.8h-30v0.2c0,8.3,6.5,15.1,14.7,15.1c5.1,0,9.6-2.8,12.1-6.9c0.3-0.4,0.8-0.4,1.2-0.2
		c0.3,0.2,0.5,0.8,0.2,1.2c-2.9,4.5-7.9,7.6-13.6,7.6C548.7,191.6,541.5,184.1,541.4,174.9z M543.2,174l29-1
		c-0.9-7.5-7.1-13.2-14.4-13.2C550.2,159.8,544.1,166.5,543.2,174z"/>
	<path id="XMLID_289_" class="st4" d="M615.1,191.7c-0.4,0-0.8-0.4-0.8-0.9v-8.3c-2.7,5.4-8.2,9.2-14.5,9.2
		c-9.1,0-16.4-7.6-16.4-16.9c0-9.2,7.3-16.8,16.4-16.8c6.3,0,11.8,3.8,14.5,9.3v-22.7c0-0.5,0.4-1,0.8-1c0.5,0,0.9,0.6,0.9,1v29.5
		v0.7v0.8v15.2C616,191.3,615.7,191.7,615.1,191.7z M614.3,174.2c-0.3-8-6.8-14.4-14.5-14.4c-8,0-14.7,6.7-14.7,15.1
		c0,8.4,6.6,15.2,14.7,15.2c7.9,0,14.5-6.8,14.5-15.2V174.2z"/>
	<path id="XMLID_292_" class="st4" d="M651.7,175.6v-0.8v-0.7v-29.5c0-0.5,0.3-1,0.9-1c0.4,0,0.8,0.6,0.8,1v22.7
		c2.7-5.5,8.2-9.3,14.5-9.3c9.1,0,16.4,7.6,16.4,16.8c0,9.3-7.3,16.9-16.4,16.9c-6.3,0-11.8-3.8-14.5-9.2v8.3c0,0.5-0.4,0.9-0.8,0.9
		c-0.6,0-0.9-0.4-0.9-0.9V175.6z M653.5,174.8c0,8.4,6.6,15.2,14.5,15.2c8,0,14.7-6.8,14.7-15.2c0-8.3-6.6-15.1-14.7-15.1
		c-7.7,0-14.2,6.4-14.5,14.4V174.8z"/>
	<path id="XMLID_295_" class="st4" d="M692.6,158.9c0-0.5,0.3-0.9,0.9-0.9c0.4,0,0.8,0.4,0.8,0.9v19.2c0,6.5,5.3,11.8,11.8,11.8
		c6.3,0,11.4-5,11.6-11.3v-19.7v-0.1c0-0.1,0.1-0.2,0.1-0.3c0,0,0-0.1,0.1-0.1l0.2-0.2c0.1-0.1,0.3-0.1,0.5-0.1h0.1
		c0.1,0,0.1,0.1,0.2,0.1l0.2,0.2c0.1,0,0.1,0.1,0.1,0.1c0.1,0.1,0.2,0.3,0.2,0.6v30.9c0,8.7-7,15.8-15.8,15.8
		c-2.5,0-4.8-0.6-6.9-1.7c-0.5-0.2-0.6-0.7-0.3-1.2c0.1-0.4,0.7-0.6,1-0.4c1.9,1,3.9,1.5,6.2,1.5c7.8,0,14.1-6.3,14.1-14.1v-5.1
		c-2.2,4.1-6.6,6.9-11.6,6.9c-7.5,0-13.6-6.1-13.6-13.5V158.9z"/>
	<path id="XMLID_297_" class="st4" d="M757.3,144.5c0-0.5,0.3-0.9,0.8-0.9h0.1h0.1h25.5c0.5,0,0.8,0.4,0.8,0.9
		c0,0.5-0.3,0.8-0.8,0.8h-24.8v21.5h21.9c0.5,0,0.8,0.4,0.8,0.8c0,0.6-0.3,0.9-0.8,0.9h-21.9v22.4c0,0.5-0.3,0.9-0.9,0.9
		c-0.4,0-0.8-0.4-0.8-0.9V144.5z"/>
	<path id="XMLID_299_" class="st4" d="M807.5,158c8.8,0,16,7.6,16,16.9c0,9.2-7.2,16.9-16,16.9s-15.9-7.6-15.9-16.9
		C791.6,165.6,798.6,158,807.5,158z M807.5,190c7.8,0,14.2-6.8,14.2-15.1c0-8.4-6.5-15.1-14.2-15.1c-7.8,0-14.2,6.7-14.2,15.1
		C793.3,183.2,799.7,190,807.5,190z"/>
	<path id="XMLID_302_" class="st4" d="M850.5,158c8.8,0,16,7.6,16,16.9c0,9.2-7.2,16.9-16,16.9s-15.9-7.6-15.9-16.9
		C834.6,165.6,841.7,158,850.5,158z M850.5,190c7.8,0,14.2-6.8,14.2-15.1c0-8.4-6.5-15.1-14.2-15.1c-7.8,0-14.2,6.7-14.2,15.1
		C836.3,183.2,842.7,190,850.5,190z"/>
	<path id="XMLID_305_" class="st4" d="M908.6,191.7c-0.4,0-0.8-0.4-0.8-0.9v-8.3c-2.7,5.4-8.2,9.2-14.5,9.2
		c-9.1,0-16.4-7.6-16.4-16.9c0-9.2,7.3-16.8,16.4-16.8c6.3,0,11.8,3.8,14.5,9.3v-22.7c0-0.5,0.4-1,0.8-1c0.6,0,0.9,0.6,0.9,1v29.5
		v0.7v0.8v15.2C909.5,191.3,909.2,191.7,908.6,191.7z M907.8,174.2c-0.3-8-6.8-14.4-14.5-14.4c-8,0-14.7,6.7-14.7,15.1
		c0,8.4,6.6,15.2,14.7,15.2c7.9,0,14.5-6.8,14.5-15.2V174.2z"/>
	<path id="XMLID_308_" class="st4" d="M948.2,142.9c5.9,0,11.4,2.1,15.6,5.3c0.4,0.3,0.6,0.9,0.3,1.2c-0.4,0.4-1,0.5-1.3,0.1
		c-4-3.1-9-4.9-14.6-4.9c-12.7,0-23.2,10.1-23.2,22.6c0,12.6,10.5,22.7,23.2,22.7c5.5,0,10.5-1.8,14.5-4.9c0.4-0.3,1-0.3,1.3,0.1
		c0.3,0.3,0.2,0.9-0.2,1.2c-4.3,3.2-9.7,5.3-15.6,5.3c-13.8-0.1-25-11-25-24.5C923.2,153.9,934.4,142.9,948.2,142.9z"/>
	<path id="XMLID_310_" class="st4" d="M1005.8,158.9v31.9c0,0.6-0.3,0.9-0.8,0.9c-0.6,0-0.9-0.3-0.9-0.9v-8.4
		c-2.6,5.5-8,9.3-14.2,9.3c-8.8,0-15.9-7.6-15.9-16.9s7.1-16.9,15.9-16.9c6.2,0,11.6,3.9,14.2,9.3v-8.4c0-0.4,0.3-0.9,0.9-0.9
		C1005.4,158,1005.8,158.5,1005.8,158.9z M1004,174.9c0-8.3-6.4-15.1-14.2-15.1s-14.2,6.7-14.2,15.1c0,8.4,6.4,15.1,14.2,15.1
		S1004,183.3,1004,174.9z"/>
	<path id="XMLID_313_" class="st4" d="M1021.7,144.5c0-0.5,0.3-0.9,0.9-0.9c0.5,0,0.8,0.4,0.8,0.9v46.4c0,0.5-0.3,0.9-0.8,0.9
		c-0.5,0-0.9-0.4-0.9-0.9V144.5z"/>
	<path id="XMLID_315_" class="st4" d="M1053.2,158c4,0,7.8,1.3,10.7,3.6c0.3,0.3,0.3,0.9,0.1,1.3c-0.3,0.3-0.8,0.3-1.2,0.1
		c-2.7-2.1-6.1-3.3-9.6-3.3c-8.7,0-15.6,6.8-15.6,15.1s6.9,15.1,15.6,15.1c3.6,0,6.9-1.3,9.6-3.4c0.3-0.2,0.9-0.1,1.2,0.2
		c0.3,0.4,0.3,0.9-0.1,1.2c-3,2.3-6.7,3.6-10.7,3.6c-9.6-0.1-17.3-7.6-17.3-16.9C1035.9,165.6,1043.7,158,1053.2,158z"/>
</g>
<path id="XMLID_23_" class="st5" d="M231.4,186c0.3,3.9-2.8,10-8.3,11.8c-3.1,1-3.6,0.7-6.1,0.9c-4.5,0.2-8.7-1.9-11.3-5.6
	l-51.6-74.8l-3-4.5l-3.9,6l-47.8,74.1c0,0-7.8,10.8-16.7,3.1c-6.4-5.5-4.7-11.4-3-15.2c0.6-1.2,1.2-2.3,2-3.3l60.1-79l-11.1-11.3
	c0,0-39.7,6.4-51.1-70c-0.3-2.2,0.4-4.4,1.8-6.1l0.9-1.1c2.1-2.4,5.9-2.3,7.9,0.1l55.3,63.2l6.4,7.8l1.5,1.8l9.7-12.6l-1.4-15.2
	c-0.3-2.9,0.6-5.7,2.3-8L195,8.7h6.9L184,32.2l0.4,2.9l3.1-1.3l18.9-25.1h5.9l-19.9,27.6l0.3,2.9l3.7-0.9l21.3-29.6h5.6l-22.7,33.3
	l0.4,3.4l3.3-1.3l22.6-35.4h6.5l-35.6,57.5c-1.8,2.9-4.5,5.1-7.8,6.4l-16.5,6.3L162,96.4l66.6,82.7
	C230.2,181.1,231.2,183.5,231.4,186z"/>
<line id="XMLID_8_" class="st6" x1="160.3" y1="103.7" x2="149.9" y2="103.7"/>
<path id="XMLID_27_" class="st5" d="M130.7,100.1L72,177.2c-1.2,1.6-2.2,3.2-3,4.9c-1.2,2.5-1.9,4.8-2.2,7
	c-20.3-21-33.3-49.2-34.5-80.7C31,71.2,46.2,37.3,71.5,13.8c-0.4,1.8-0.4,3.7-0.2,5.6c5,33.5,15.9,56.6,32.5,68.7
	c9.4,6.9,18.3,8.4,23.5,8.6L130.7,100.1z"/>
<path id="XMLID_33_" class="st5" d="M277.6,99c1.4,37.3-13.9,71.3-39.3,94.8c1.2-2.8,1.7-5.8,1.5-8.4l0,0c-0.3-4.2-1.9-8.2-4.6-11.7
	l-62.7-77.9l6.7-10.1l13.9-5.3c4.9-1.9,9.2-5.4,12-9.8l34.6-55.7C262,36.1,276.3,65.8,277.6,99z"/>
<text id="XMLID_5_" transform="matrix(1 0 0 1 48.3962 129.1152)" class="st7 st8 st9">M</text>
<text id="XMLID_6_" transform="matrix(1 0 0 1 214.8762 129.1153)" class="st7 st8 st9">C</text>
<path id="XMLID_1_" class="st10" d="M256.9,8.3c23.9,23.9,38.8,57.7,38.8,95.2c0,37.2-14.7,70.7-38.2,94.6"/>
<path id="XMLID_4_" class="st10" d="M51.7,8.3C27.8,32.2,12.9,66,12.9,103.5c0,37.2,14.7,70.7,38.2,94.6"/>
</svg>
